<svg xmlns="http://www.w3.org/2000/svg" width="48" height="23" viewBox="0 0 48 23">
    <g fill="none" fill-rule="evenodd">
        <path fill="#003DA5" d="M44.134.11L.554 5.532v16.907h43.58z"/>
        <path fill="#FFF" fill-rule="nonzero" d="M22.967 17.553c-.712.485-1.404.803-2.79.705-1.322-.095-2.798-1.174-2.798-2.914 0-2.093 1.11-3.01 3.82-3.773l2.218-.548c-.25-.528-.946-.978-1.582-.978-1.061 0-1.89.47-2.546 1.056l-1.06-1.76c1.561-1.075 2.99-1.33 4.3-1.33 2.315 0 4.61.764 4.61 4.087v3.54c0 .82.078 1.7.346 2.384h-3.824c-.112-.216-.244-.457-.244-.81l-.45.341zm-.587-4.444c-.872.277-1.553.747-1.677 1.658-.086.639.345 1.056.842 1.125.669.093 1.982-.483 2.009-3.14l-1.174.357z"/>
        <path fill="#FFF" d="M36.636 7.937h3.859V18.01h-3.86z"/>
        <path fill="#003DA5" d="M32.885 18.007l-1.592-2.566-1.712 2.581h-3.728l3.458-4.965-3.077-5.112 4.38-.004 1.45 2.574 1.491-2.575 3.474-.003-3.132 4.751 3.448 5.32z"/>
        <path stroke="#003DA5" stroke-width="1.475" d="M32.885 18.007l-1.592-2.566-1.712 2.581h-3.728l3.458-4.965-3.077-5.112 4.38-.004 1.45 2.574 1.491-2.575 3.474-.003-3.132 4.751 3.448 5.32z"/>
        <path fill="#FFF" d="M7.311 9.342h.031c.423-.822 1.55-1.33 2.724-1.33.736 0 1.738.234 2.16 1.33.502-.725 1.456-1.311 2.615-1.33 2.018-.02 3.006 1.192 2.99 3.734v6.276h-3.13v-6.158c0-.743-.36-1.408-.924-1.408-.861 0-1.19.567-1.19 1.857v5.71h-3.13v-6.159c0-.645-.282-1.408-.924-1.408-.846 0-1.19.528-1.19 1.838v5.729H4.212V8.246h3.1v1.096zM38.604 7.025c1.173 0 2.124-.805 2.124-1.8s-.95-1.8-2.124-1.8c-1.172 0-2.122.806-2.122 1.8s.95 1.8 2.122 1.8"/>
        <path fill="#003DA5" d="M45.135 1.042l.212-.938h.354v1.194h-.229V.49.392.295l-.222 1.002h-.239L44.79.295V1.298h-.228V.104h.358l.215.938z"/>
        <path fill="#003DA5" fill-rule="nonzero" d="M46.836.477c.057.081.086.2.086.351 0 .111-.02.205-.057.286-.069.145-.192.22-.366.22h-.342V.354h.342c.17 0 .28.039.337.122zM45.798.094v1.5h.764c.267 0 .467-.094.594-.281a.873.873 0 0 0 .142-.506c0-.08-.012-.162-.033-.249a.662.662 0 0 0-.127-.242.581.581 0 0 0-.302-.19 1.023 1.023 0 0 0-.274-.033h-.764v.001z"/>
        <path fill="#FFF200" d="M32.885 18.007l-1.592-2.566-1.712 2.581h-3.728l3.458-4.965-3.077-5.112 4.38-.004 1.45 2.574 1.491-2.575 3.474-.003-3.132 4.751 3.448 5.32z"/>
    </g>
</svg>
